<svg width="608" height="152" viewBox="0 0 608 152" fill="none" xmlns="http://www.w3.org/2000/svg">
<path fill-rule="evenodd" clip-rule="evenodd" d="M64.0115 12.3741C64.8233 11.8753 65.8434 11.8753 66.6551 12.3741L117.449 43.5817C118.205 44.0464 118.667 44.8747 118.667 45.7676V106.232C118.667 107.125 118.205 107.954 117.449 108.418L66.6551 139.626C65.8712 140.108 64.8903 140.125 64.0897 139.672C63.2892 139.219 62.7936 138.365 62.7936 137.44V119.767L40.4422 124.345C39.6952 124.498 38.9196 124.305 38.3294 123.818C37.7392 123.332 37.3968 122.605 37.3968 121.836V108.792H14.5397C13.1371 108.792 12 107.646 12 106.232V45.7676C12 44.8747 12.4615 44.0464 13.2179 43.5817L64.0115 12.3741ZM42.4762 108.792V118.704L62.7936 114.543V108.792H42.4762ZM62.7936 103.672H42.4762V48.3276H62.7936V103.672ZM67.873 108.792V113.502L90.8716 108.792H67.873ZM102.43 111.65L67.873 118.727V132.882L102.43 111.65ZM113.587 103.672H67.873V48.3276H113.587V103.672ZM102.43 40.3501L67.873 19.1184V33.2729L102.43 40.3501ZM62.7936 32.2326V19.1184L46.7851 28.9541L62.7936 32.2326ZM37.3968 34.7223L23.586 43.2076H37.3968V34.7223ZM42.4762 43.2076H62.7936V37.4573L42.4762 33.2962V43.2076ZM67.873 43.2076V38.4975L90.8716 43.2076H67.873ZM37.3968 48.3276V103.672H17.0794V48.3276H37.3968Z" fill="url(#paint0_linear_568_77)"/>
<path d="M162.439 77.1597C150.683 77.1597 142.667 69.9397 142.667 57.171V49.1488C142.667 36.38 150.683 29.16 162.439 29.16C173.729 29.16 181.811 35.3773 182.145 46.2073H173.127C172.86 40.7923 168.92 37.8508 162.439 37.8508C155.425 37.8508 151.685 41.7282 151.685 49.1488V57.171C151.685 64.5915 155.425 68.469 162.439 68.469C169.854 68.469 173.194 65.3938 173.194 59.7782V59.3102H162.373V50.9538H182.212V59.7782C182.212 70.3408 174.397 77.1597 162.439 77.1597Z" fill="#202020"/>
<path d="M193.564 76.558V29.7616H202.582V68.3352H223.29V76.558H193.564Z" fill="#202020"/>
<path d="M264.323 76.558L261.45 65.7948H243.014L240.141 76.558H230.99L243.547 29.7616H261.05L273.474 76.558H264.323ZM245.352 57.1041H259.112L252.231 31.4329L245.352 57.1041Z" fill="#202020"/>
<path d="M297.87 77.16C286.514 77.16 279.767 70.3411 279.5 60.8482H288.451C288.717 65.4609 292.125 68.8035 297.87 68.8035C304.216 68.8035 306.954 66.1963 306.954 63.3217C306.954 60.3802 305.083 58.8426 301.61 57.9067L293.928 55.8343C286.848 53.8956 281.838 50.4193 281.838 42.9319C281.838 34.9765 288.25 29.1604 298.538 29.1604C309.292 29.1604 315.84 36.0461 315.973 44.3357H307.021C306.888 40.9932 304.149 37.5169 298.538 37.5169C292.926 37.5169 290.856 40.2578 290.856 42.5307C290.856 45.5391 292.926 46.5419 296.467 47.4778L304.55 49.6839C312.566 51.89 316.039 56.7034 316.039 63.3217C316.039 71.6782 308.023 77.16 297.87 77.16Z" fill="#202020"/>
<path d="M342.116 77.16C330.759 77.16 324.013 70.3411 323.745 60.8482H332.697C332.964 65.4609 336.371 68.8035 342.116 68.8035C348.462 68.8035 351.202 66.1963 351.202 63.3217C351.202 60.3802 349.331 58.8426 345.858 57.9067L338.176 55.8343C331.093 53.8956 326.083 50.4193 326.083 42.9319C326.083 34.9765 332.497 29.1604 342.784 29.1604C353.54 29.1604 360.085 36.0461 360.22 44.3357H351.268C351.134 40.9932 348.395 37.5169 342.784 37.5169C337.174 37.5169 335.101 40.2578 335.101 42.5307C335.101 45.5391 337.174 46.5419 340.713 47.4778L348.796 49.6839C356.812 51.89 360.286 56.7034 360.286 63.3217C360.286 71.6782 352.27 77.16 342.116 77.16Z" fill="#202020"/>
<path d="M399.383 76.558V56.9035H380.344V76.558H371.326V29.7616H380.344V48.2128H399.383V29.7616H408.401V76.558H399.383Z" fill="#202020"/>
<path d="M439.521 77.16C427.764 77.16 419.748 69.94 419.748 57.1713V49.1491C419.748 36.3804 427.764 29.1604 439.521 29.1604C451.279 29.1604 459.295 36.3804 459.295 49.1491V57.1713C459.295 69.94 451.279 77.16 439.521 77.16ZM428.766 57.1713C428.766 64.7924 432.84 68.8035 439.521 68.8035C446.201 68.8035 450.277 64.7924 450.277 57.1713V49.1491C450.277 41.528 446.201 37.8511 439.521 37.8511C432.84 37.8511 428.766 41.528 428.766 49.1491V57.1713Z" fill="#202020"/>
<path d="M488.407 77.1596C477.452 77.1596 469.97 70.4744 469.97 59.7113V29.7616H478.988V59.5776C478.988 64.5246 481.058 68.8031 488.407 68.8031C495.889 68.8031 497.96 64.5246 497.96 59.5776V29.7616H506.978V59.7113C506.978 70.4744 499.563 77.1596 488.407 77.1596Z" fill="#202020"/>
<path d="M535.393 77.16C524.037 77.16 517.289 70.3411 517.023 60.8482H525.973C526.24 65.4609 529.647 68.8035 535.393 68.8035C541.739 68.8035 544.477 66.1963 544.477 63.3217C544.477 60.3802 542.606 58.8426 539.133 57.9067L531.451 55.8343C524.371 53.8956 519.359 50.4193 519.359 42.9319C519.359 34.9765 525.773 29.1604 536.059 29.1604C546.815 29.1604 553.361 36.0461 553.495 44.3357H544.544C544.409 40.9932 541.671 37.5169 536.059 37.5169C530.449 37.5169 528.379 40.2578 528.379 42.5307C528.379 45.5391 530.449 46.5419 533.989 47.4778L542.073 49.6839C550.089 51.89 553.562 56.7034 553.562 63.3217C553.562 71.6782 545.546 77.16 535.393 77.16Z" fill="#202020"/>
<path d="M564.604 76.558V29.7616H596V38.1181H573.622V48.3465H593.929V56.5024H573.622V68.2015H596V76.558H564.604Z" fill="#202020"/>
<path d="M166.987 112.84C165.947 118.8 162.067 122.84 155.507 122.84C147.347 122.84 142.667 116.28 142.667 108.04C142.667 99.76 147.307 93.16 155.507 93.16C161.547 93.16 165.507 96.92 166.747 102.52L163.107 102.76C162.187 98.76 159.427 96.52 155.507 96.52C149.027 96.52 146.267 101.88 146.267 108.04C146.267 114.16 149.067 119.48 155.507 119.48C159.667 119.48 162.467 117 163.307 112.6L166.987 112.84Z" fill="#202020"/>
<path d="M187.673 122.84C179.593 122.84 174.713 117.2 174.713 108.04C174.713 98.8 179.593 93.16 187.673 93.16C195.793 93.16 200.673 98.8 200.673 108.04C200.673 117.2 195.793 122.84 187.673 122.84ZM178.313 108.04C178.313 115.12 181.833 119.48 187.673 119.48C193.553 119.48 197.073 115.12 197.073 108.04C197.073 100.88 193.553 96.52 187.673 96.52C181.833 96.52 178.313 100.88 178.313 108.04Z" fill="#202020"/>
<path d="M209.926 93.8H214.726L223.806 118.44L232.846 93.8H237.646V122.2H234.206V100.68L226.086 122.2H221.486L213.366 100.68V122.2H209.926V93.8Z" fill="#202020"/>
<path d="M258.618 93.8C264.938 93.8 268.658 97 268.658 102.4C268.658 107.88 264.938 111.16 258.618 111.16H251.858V122.2H248.418V93.8H258.618ZM251.858 107.8H258.618C262.898 107.8 265.058 105.96 265.058 102.4C265.058 98.92 262.898 97.16 258.618 97.16H251.858V107.8Z" fill="#202020"/>
<path d="M289.673 122.84C281.593 122.84 276.713 117.2 276.713 108.04C276.713 98.8 281.593 93.16 289.673 93.16C297.793 93.16 302.673 98.8 302.673 108.04C302.673 117.2 297.793 122.84 289.673 122.84ZM280.313 108.04C280.313 115.12 283.833 119.48 289.673 119.48C295.553 119.48 299.073 115.12 299.073 108.04C299.073 100.88 295.553 96.52 289.673 96.52C283.833 96.52 280.313 100.88 280.313 108.04Z" fill="#202020"/>
<path d="M311.926 93.8H316.726L330.646 118.12V93.8H334.086V122.2H329.086L315.366 98.28V122.2H311.926V93.8Z" fill="#202020"/>
<path d="M344.871 93.8H362.711V97.16H348.311V106.32H362.231V109.6H348.311V118.84H363.031V122.2H344.871V93.8Z" fill="#202020"/>
<path d="M372.582 93.8H377.382L391.302 118.12V93.8H394.742V122.2H389.742L376.022 98.28V122.2H372.582V93.8Z" fill="#202020"/>
<path d="M424.553 93.8V97.16H415.713V122.2H412.273V97.16H403.433V93.8H424.553Z" fill="#202020"/>
<path d="M434.737 112.88C435.457 116.72 438.177 119.32 442.657 119.32C446.297 119.32 448.737 117.88 448.737 115.04C448.737 112.16 446.257 110.4 440.577 108.96C435.937 107.8 431.737 105.52 431.737 100.96C431.737 96.16 435.577 93.16 441.017 93.16C447.097 93.16 451.137 96.96 451.737 102.2L448.137 102.44C447.617 98.88 444.897 96.52 440.977 96.52C437.737 96.52 435.337 98.24 435.337 100.96C435.337 104.4 439.457 105.36 443.057 106.36C448.217 107.8 452.337 110.36 452.337 114.68C452.337 119.96 447.537 122.68 442.377 122.68C436.177 122.68 431.617 118.88 431.137 113.12L434.737 112.88Z" fill="#202020"/>
<defs>
<linearGradient id="paint0_linear_568_77" x1="66.2858" y1="12" x2="66.2858" y2="140.033" gradientUnits="userSpaceOnUse">
<stop stop-color="#F45239"/>
<stop offset="1" stop-color="#480FBE"/>
</linearGradient>
</defs>
</svg>
