<svg width="608" height="152" viewBox="0 0 608 152" fill="none" xmlns="http://www.w3.org/2000/svg">
<path fill-rule="evenodd" clip-rule="evenodd" d="M64.0115 12.3741C64.8233 11.8753 65.8434 11.8753 66.6551 12.3741L117.449 43.5817C118.205 44.0464 118.667 44.8747 118.667 45.7676V106.232C118.667 107.125 118.205 107.954 117.449 108.418L66.6551 139.626C65.8712 140.108 64.8903 140.125 64.0897 139.672C63.2892 139.219 62.7936 138.365 62.7936 137.44V119.767L40.4422 124.345C39.6952 124.498 38.9196 124.305 38.3294 123.818C37.7392 123.332 37.3968 122.605 37.3968 121.836V108.792H14.5397C13.1371 108.792 12 107.646 12 106.232V45.7676C12 44.8747 12.4615 44.0464 13.2179 43.5817L64.0115 12.3741ZM42.4762 108.792V118.704L62.7936 114.543V108.792H42.4762ZM62.7936 103.672H42.4762V48.3276H62.7936V103.672ZM67.873 108.792V113.502L90.8716 108.792H67.873ZM102.43 111.65L67.873 118.727V132.882L102.43 111.65ZM113.587 103.672H67.873V48.3276H113.587V103.672ZM102.43 40.3501L67.873 19.1184V33.2729L102.43 40.3501ZM62.7936 32.2326V19.1184L46.7851 28.9541L62.7936 32.2326ZM37.3968 34.7223L23.586 43.2076H37.3968V34.7223ZM42.4762 43.2076H62.7936V37.4573L42.4762 33.2962V43.2076ZM67.873 43.2076V38.4975L90.8716 43.2076H67.873ZM37.3968 48.3276V103.672H17.0794V48.3276H37.3968Z" fill="url(#paint0_linear_568_84)"/>
<path d="M162.439 77.1597C150.683 77.1597 142.667 69.9397 142.667 57.171V49.1488C142.667 36.38 150.683 29.16 162.439 29.16C173.729 29.16 181.811 35.3773 182.145 46.2073H173.127C172.86 40.7923 168.92 37.8508 162.439 37.8508C155.425 37.8508 151.685 41.7282 151.685 49.1488V57.171C151.685 64.5915 155.425 68.469 162.439 68.469C169.854 68.469 173.194 65.3938 173.194 59.7782V59.3102H162.373V50.9538H182.212V59.7782C182.212 70.3408 174.397 77.1597 162.439 77.1597Z" fill="#202020"/>
<path d="M193.564 76.558V29.7616H202.582V68.3352H223.29V76.558H193.564Z" fill="#202020"/>
<path d="M264.323 76.558L261.45 65.7948H243.014L240.141 76.558H230.99L243.547 29.7616H261.05L273.474 76.558H264.323ZM245.352 57.1041H259.112L252.231 31.4329L245.352 57.1041Z" fill="#202020"/>
<path d="M297.87 77.16C286.514 77.16 279.767 70.3411 279.5 60.8482H288.451C288.717 65.4609 292.125 68.8035 297.87 68.8035C304.216 68.8035 306.954 66.1963 306.954 63.3217C306.954 60.3802 305.083 58.8426 301.61 57.9067L293.928 55.8343C286.848 53.8956 281.838 50.4193 281.838 42.9319C281.838 34.9765 288.25 29.1604 298.538 29.1604C309.292 29.1604 315.84 36.0461 315.973 44.3357H307.021C306.888 40.9932 304.149 37.5169 298.538 37.5169C292.926 37.5169 290.856 40.2578 290.856 42.5307C290.856 45.5391 292.926 46.5419 296.467 47.4778L304.55 49.6839C312.566 51.89 316.039 56.7034 316.039 63.3217C316.039 71.6782 308.023 77.16 297.87 77.16Z" fill="#202020"/>
<path d="M342.116 77.16C330.759 77.16 324.013 70.3411 323.745 60.8482H332.697C332.964 65.4609 336.371 68.8035 342.116 68.8035C348.462 68.8035 351.202 66.1963 351.202 63.3217C351.202 60.3802 349.331 58.8426 345.858 57.9067L338.176 55.8343C331.093 53.8956 326.083 50.4193 326.083 42.9319C326.083 34.9765 332.497 29.1604 342.784 29.1604C353.54 29.1604 360.085 36.0461 360.22 44.3357H351.268C351.134 40.9932 348.395 37.5169 342.784 37.5169C337.174 37.5169 335.101 40.2578 335.101 42.5307C335.101 45.5391 337.174 46.5419 340.713 47.4778L348.796 49.6839C356.812 51.89 360.286 56.7034 360.286 63.3217C360.286 71.6782 352.27 77.16 342.116 77.16Z" fill="#202020"/>
<path d="M399.383 76.558V56.9035H380.344V76.558H371.326V29.7616H380.344V48.2128H399.383V29.7616H408.401V76.558H399.383Z" fill="#202020"/>
<path d="M439.521 77.16C427.764 77.16 419.748 69.94 419.748 57.1713V49.1491C419.748 36.3804 427.764 29.1604 439.521 29.1604C451.279 29.1604 459.295 36.3804 459.295 49.1491V57.1713C459.295 69.94 451.279 77.16 439.521 77.16ZM428.766 57.1713C428.766 64.7924 432.84 68.8035 439.521 68.8035C446.201 68.8035 450.277 64.7924 450.277 57.1713V49.1491C450.277 41.528 446.201 37.8511 439.521 37.8511C432.84 37.8511 428.766 41.528 428.766 49.1491V57.1713Z" fill="#202020"/>
<path d="M488.407 77.1596C477.452 77.1596 469.97 70.4744 469.97 59.7113V29.7616H478.988V59.5776C478.988 64.5246 481.058 68.8031 488.407 68.8031C495.889 68.8031 497.96 64.5246 497.96 59.5776V29.7616H506.978V59.7113C506.978 70.4744 499.563 77.1596 488.407 77.1596Z" fill="#202020"/>
<path d="M535.393 77.16C524.037 77.16 517.289 70.3411 517.023 60.8482H525.973C526.24 65.4609 529.647 68.8035 535.393 68.8035C541.739 68.8035 544.477 66.1963 544.477 63.3217C544.477 60.3802 542.606 58.8426 539.133 57.9067L531.451 55.8343C524.371 53.8956 519.359 50.4193 519.359 42.9319C519.359 34.9765 525.773 29.1604 536.059 29.1604C546.815 29.1604 553.361 36.0461 553.495 44.3357H544.544C544.409 40.9932 541.671 37.5169 536.059 37.5169C530.449 37.5169 528.379 40.2578 528.379 42.5307C528.379 45.5391 530.449 46.5419 533.989 47.4778L542.073 49.6839C550.089 51.89 553.562 56.7034 553.562 63.3217C553.562 71.6782 545.546 77.16 535.393 77.16Z" fill="#202020"/>
<path d="M564.604 76.558V29.7616H596V38.1181H573.622V48.3465H593.929V56.5024H573.622V68.2015H596V76.558H564.604Z" fill="#202020"/>
<path d="M146.267 112.88C146.987 116.72 149.707 119.32 154.187 119.32C157.827 119.32 160.267 117.88 160.267 115.04C160.267 112.16 157.787 110.4 152.107 108.96C147.467 107.8 143.267 105.52 143.267 100.96C143.267 96.16 147.107 93.16 152.547 93.16C158.627 93.16 162.667 96.96 163.267 102.2L159.667 102.44C159.147 98.88 156.427 96.52 152.507 96.52C149.267 96.52 146.867 98.24 146.867 100.96C146.867 104.4 150.987 105.36 154.587 106.36C159.747 107.8 163.867 110.36 163.867 114.68C163.867 119.96 159.067 122.68 153.907 122.68C147.707 122.68 143.147 118.88 142.667 113.12L146.267 112.88Z" fill="#202020"/>
<path d="M191.583 93.8V97.16H182.743V122.2H179.303V97.16H170.463V93.8H191.583Z" fill="#202020"/>
<path d="M198.404 93.8H202.484L210.164 106.96L217.844 93.8H221.924L211.884 110.6V122.2H208.444V110.6L198.404 93.8Z" fill="#202020"/>
<path d="M229.854 122.2V93.8H233.294V118.84H247.494V122.2H229.854Z" fill="#202020"/>
<path d="M257.057 93.8H274.897V97.16H260.497V106.32H274.417V109.6H260.497V118.84H275.217V122.2H257.057V93.8Z" fill="#202020"/>
<path d="M321.638 122.2H319.118L318.798 117.56C317.598 120.68 314.078 122.84 310.278 122.84C302.118 122.84 297.438 116.28 297.438 108.04C297.438 99.76 302.078 93.16 310.278 93.16C316.318 93.16 320.278 96.92 321.518 102.52L317.918 102.76C316.958 98.92 314.398 96.52 310.278 96.52C303.798 96.52 301.038 101.88 301.038 108.04C301.038 114.16 303.838 119.48 310.278 119.48C315.238 119.48 317.998 115.88 318.318 111.2H310.278V107.84H321.638V122.2Z" fill="#202020"/>
<path d="M352.279 112.28C352.279 118.76 348.159 122.84 341.599 122.84C334.999 122.84 330.879 118.76 330.879 112.28V93.76H334.319V112.28C334.319 116.88 336.959 119.48 341.599 119.48C346.199 119.48 348.839 116.88 348.839 112.28V93.76H352.279V112.28Z" fill="#202020"/>
<path d="M363.057 93.8H366.497V122.2H363.057V93.8Z" fill="#202020"/>
<path d="M386.638 93.8C395.358 93.8 400.278 98.92 400.278 108.04C400.278 117.12 395.478 122.2 386.878 122.2H377.838V93.8H386.638ZM381.278 118.84H386.638C393.318 118.84 396.678 115.24 396.678 108.04C396.678 100.76 393.318 97.16 386.638 97.16H381.278V118.84Z" fill="#202020"/>
<path d="M409.533 93.8H427.373V97.16H412.973V106.32H426.893V109.6H412.973V118.84H427.693V122.2H409.533V93.8Z" fill="#202020"/>
<defs>
<linearGradient id="paint0_linear_568_84" x1="66.2858" y1="12" x2="66.2858" y2="140.033" gradientUnits="userSpaceOnUse">
<stop stop-color="#F45239"/>
<stop offset="1" stop-color="#480FBE"/>
</linearGradient>
</defs>
</svg>
